<?xml version="1.0" encoding="UTF-8"?>
<svg fill="currentColor" xmlns="http://www.w3.org/2000/svg" xmlns:xlink="http://www.w3.org/1999/xlink" width="20px" height="20px" viewBox="0 0 20 20" version="1.1">
<g id="surface1">
<path style=" stroke:none;fill-rule:nonzero;fill-opacity:1;" d="M 9.46875 11.425781 C 9.679688 11.214844 10.042969 11.214844 10.253906 11.425781 L 13.261719 14.433594 C 13.816406 14.988281 14.554688 15.292969 15.335938 15.292969 L 15.925781 15.292969 L 12.132812 19.085938 C 10.949219 20.238281 9.027344 20.238281 7.84375 19.085938 L 4.035156 15.28125 L 4.398438 15.28125 C 5.179688 15.28125 5.917969 14.976562 6.472656 14.421875 Z M 10.253906 8.550781 C 10.003906 8.765625 9.683594 8.769531 9.46875 8.550781 L 6.472656 5.554688 C 5.917969 4.964844 5.179688 4.695312 4.398438 4.695312 L 4.035156 4.695312 L 7.839844 0.890625 C 9.027344 -0.296875 10.949219 -0.296875 12.132812 0.890625 L 15.929688 4.683594 L 15.335938 4.683594 C 14.554688 4.683594 13.816406 4.988281 13.261719 5.542969 Z M 4.398438 5.574219 C 4.9375 5.574219 5.433594 5.792969 5.847656 6.175781 L 8.84375 9.171875 C 9.125 9.417969 9.492188 9.59375 9.863281 9.59375 C 10.230469 9.59375 10.597656 9.417969 10.878906 9.171875 L 13.886719 6.164062 C 14.269531 5.785156 14.796875 5.566406 15.335938 5.566406 L 16.808594 5.566406 L 19.085938 7.84375 C 20.269531 9.027344 20.269531 10.949219 19.085938 12.132812 L 16.808594 14.410156 L 15.335938 14.410156 C 14.796875 14.410156 14.269531 14.191406 13.886719 13.808594 L 10.878906 10.800781 C 10.335938 10.257812 9.386719 10.257812 8.84375 10.804688 L 5.847656 13.796875 C 5.433594 14.179688 4.9375 14.398438 4.398438 14.398438 L 3.15625 14.398438 L 0.890625 12.132812 C -0.296875 10.949219 -0.296875 9.027344 0.890625 7.84375 L 3.15625 5.574219 Z M 4.398438 5.574219 "/>
</g>
</svg>
